{
  "accessors": [
    {
      "bufferView": 3,
      "componentType": 5126,
      "count": 2863,
      "max": [
        116.35900115966797,
        111.67800140380859,
        116.35900115966797
      ],
      "min": [
        -116.35900115966797,
        -82.770187377929688,
        -116.35900115966797
      ],
      "type": "VEC3"
    },
    {
      "bufferView": 3,
      "byteOffset": 34356,
      "componentType": 5126,
      "count": 2863,
      "max": [
        0.99898970127105713,
        0.99999982118606567,
        0.99898982048034668
      ],
      "min": [
        -0.99898970127105713,
        -1,
        -0.99898982048034668
      ],
      "type": "VEC3"
    },
    {
      "bufferView": 2,
      "componentType": 5126,
      "count": 2863,
      "max": [
        0.99153578281402588,
        0.98836159706115723
      ],
      "min": [
        0.0091650756075978279,
        0.29077804088592529
      ],
      "type": "VEC2"
    },
    {
      "bufferView": 1,
      "componentType": 5125,
      "count": 16896,
      "max": [
        2862
      ],
      "min": [
        0
      ],
      "type": "SCALAR"
    },
    {
      "bufferView": 3,
      "byteOffset": 68712,
      "componentType": 5126,
      "count": 1037,
      "max": [
        45.722152709960938,
        3.8881993293762207,
        45.722152709960938
      ],
      "min": [
        -45.722152709960938,
        -3.8881993293762207,
        -45.722152709960938
      ],
      "type": "VEC3"
    },
    {
      "bufferView": 3,
      "byteOffset": 81156,
      "componentType": 5126,
      "count": 1037,
      "max": [
        1,
        1,
        1
      ],
      "min": [
        -1,
        -1,
        -1
      ],
      "type": "VEC3"
    },
    {
      "bufferView": 2,
      "byteOffset": 22904,
      "componentType": 5126,
      "count": 1037,
      "max": [
        1,
        1
      ],
      "min": [
        0,
        0
      ],
      "type": "VEC2"
    },
    {
      "bufferView": 1,
      "byteOffset": 67584,
      "componentType": 5125,
      "count": 5760,
      "max": [
        1036
      ],
      "min": [
        0
      ],
      "type": "SCALAR"
    },
    {
      "bufferView": 5,
      "componentType": 5126,
      "count": 33,
      "max": [
        1,
        2.4492913228901716e-16,
        0.99999803304672241,
        0,
        1.2246467202362698e-16,
        1,
        0,
        0,
        0.99999719858169556,
        0,
        1,
        0,
        58.595001220703125,
        63.726184844970703,
        15.600139617919922,
        1
      ],
      "min": [
        -0.99999994039535522,
        -1.493065049373854e-08,
        -0.99999719858169556,
        0,
        -2.1073423894790722e-08,
        1,
        -2.4492913228901716e-16,
        0,
        -0.99999803304672241,
        -1.4871613274181072e-08,
        -0.99999994039535522,
        0,
        -58.595260620117188,
        -82.786544799804688,
        -82.255996704101562,
        1
      ],
      "type": "MAT4"
    },
    {
      "bufferView": 0,
      "componentType": 5123,
      "count": 2863,
      "max": [
        31,
        31,
        31,
        31
      ],
      "min": [
        1,
        1,
        1,
        1
      ],
      "type": "VEC4"
    },
    {
      "bufferView": 4,
      "componentType": 5126,
      "count": 2863,
      "max": [
        1,
        0.48981741070747375,
        0.30151110887527466,
        0.22649282217025757
      ],
      "min": [
        0.27748590707778931,
        0,
        0,
        0
      ],
      "type": "VEC4"
    }
  ],
  "asset": {
    "extras": {
      "author": "zackw (https://sketchfab.com/zackw)",
      "license": "CC-BY-4.0 (http://creativecommons.org/licenses/by/4.0/)",
      "source": "https://sketchfab.com/3d-models/takodachi-rigged-d9ff9807f5fd459a84f2a9c73a673c27",
      "title": "Takodachi Rigged"
    },
    "generator": "Sketchfab-10.15.0",
    "version": "2.0"
  },
  "bufferViews": [
    {
      "buffer": 0,
      "byteLength": 22904,
      "byteOffset": 0,
      "byteStride": 8,
      "name": "shortBufferViews",
      "target": 34962
    },
    {
      "buffer": 0,
      "byteLength": 90624,
      "byteOffset": 22904,
      "name": "floatBufferViews",
      "target": 34963
    },
    {
      "buffer": 0,
      "byteLength": 31200,
      "byteOffset": 113528,
      "byteStride": 8,
      "name": "floatBufferViews",
      "target": 34962
    },
    {
      "buffer": 0,
      "byteLength": 93600,
      "byteOffset": 144728,
      "byteStride": 12,
      "name": "floatBufferViews",
      "target": 34962
    },
    {
      "buffer": 0,
      "byteLength": 45808,
      "byteOffset": 238328,
      "byteStride": 16,
      "name": "floatBufferViews",
      "target": 34962
    },
    {
      "buffer": 0,
      "byteLength": 2112,
      "byteOffset": 284136,
      "byteStride": 64,
      "name": "floatBufferViews"
    }
  ],
  "buffers": [
    {
      "byteLength": 286248,
      "uri": "takodachi.bin"
    }
  ],
  "extensionsRequired": [
    "KHR_materials_pbrSpecularGlossiness"
  ],
  "extensionsUsed": [
    "KHR_materials_pbrSpecularGlossiness"
  ],
  "images": [
    {
      "uri": "texturesTakodachi/Mat.1_diffuse.jpeg"
    }
  ],
  "materials": [
    {
      "doubleSided": true,
      "emissiveFactor": [
        0,
        0,
        0
      ],
      "extensions": {
        "KHR_materials_pbrSpecularGlossiness": {
          "diffuseFactor": [
            1,
            1,
            1,
            1
          ],
          "diffuseTexture": {
            "index": 0,
            "texCoord": 0
          },
          "glossinessFactor": 0.53471099004001021,
          "specularFactor": [
            0.042184022668401662,
            0.042184022668401662,
            0.042184022668401662
          ]
        }
      },
      "name": "Mat.1"
    },
    {
      "doubleSided": true,
      "emissiveFactor": [
        0,
        0,
        0
      ],
      "extensions": {
        "KHR_materials_pbrSpecularGlossiness": {
          "diffuseFactor": [
            0.023380567623845241,
            0.017432008357253347,
            0.0016456047709664582,
            1
          ],
          "glossinessFactor": 0.84482056208880074,
          "specularFactor": [
            0.6210695554148985,
            0.40460493534857223,
            0.0098003206276895665
          ]
        }
      },
      "name": "Gold_-_Macro_Scratches"
    }
  ],
  "meshes": [
    {
      "name": "Tako_Mat.1_0",
      "primitives": [
        {
          "attributes": {
            "JOINTS_0": 9,
            "NORMAL": 1,
            "POSITION": 0,
            "TEXCOORD_0": 2,
            "WEIGHTS_0": 10
          },
          "indices": 3,
          "material": 0,
          "mode": 4
        }
      ]
    },
    {
      "name": "Halo_Gold - Macro Scratches_0",
      "primitives": [
        {
          "attributes": {
            "NORMAL": 5,
            "POSITION": 4,
            "TEXCOORD_0": 6
          },
          "indices": 7,
          "material": 1,
          "mode": 4
        }
      ]
    }
  ],
  "nodes": [
    {
      "children": [
        1
      ],
      "name": "RootNode (gltf orientation matrix)",
      "rotation": [
        -0.70710678118654746,
        -0,
        -0,
        0.70710678118654757
      ]
    },
    {
      "children": [
        2
      ],
      "matrix": [
        0.0010796593269333243,
        0,
        0,
        0,
        0,
        0.0010796593269333243,
        0,
        0,
        0,
        0,
        0.0010796593269333243,
        0,
        0,
        0,
        0,
        1
      ],
      "name": "RootNode (model correction matrix)"
    },
    {
      "children": [
        3
      ],
      "matrix": [
        1,
        0,
        0,
        0,
        0,
        0,
        1,
        0,
        0,
        -1,
        0,
        0,
        0,
        0,
        0,
        1
      ],
      "name": "Takodachi Rigged.fbx"
    },
    {
      "children": [
        4
      ],
      "name": "RootNode"
    },
    {
      "children": [
        5,
        7,
        6
      ],
      "name": ""
    },
    {
      "children": [
        8
      ],
      "name": "_rootJoint"
    },
    {
      "matrix": [
        1,
        0,
        0,
        0,
        0,
        1,
        0,
        0,
        0,
        0,
        1,
        0,
        1.4210854715202004e-14,
        0,
        -7.1054273576010019e-15,
        1
      ],
      "name": ""
    },
    {
      "mesh": 0,
      "name": "",
      "skin": 0
    },
    {
      "children": [
        9,
        12,
        15,
        18,
        21,
        24,
        27,
        30,
        33
      ],
      "name": "base_01",
      "translation": [
        0,
        -41.260055541992188,
        -0.083670638501644135
      ]
    },
    {
      "children": [
        10
      ],
      "name": "Joint_5_02",
      "rotation": [
        0,
        -0.38158982992172241,
        0,
        0.92433178424835205
      ],
      "translation": [
        -83.091964721679688,
        -6.6746439933776855,
        16.917915344238281
      ]
    },
    {
      "children": [
        11
      ],
      "name": "Joint_4_03",
      "translation": [
        -7.8472423553466797,
        -15.791483879089355,
        11.708583831787109
      ]
    },
    {
      "name": "Joint_2_04",
      "translation": [
        -7.2119894027709961,
        -8.8993949890136719,
        10.662284851074219
      ]
    },
    {
      "children": [
        13
      ],
      "name": "Joint_5_2_05",
      "rotation": [
        0,
        -0.70626950263977051,
        0,
        0.70794308185577393
      ],
      "translation": [
        -70.658500671386719,
        -6.6746439933776855,
        -46.767612457275391
      ]
    },
    {
      "children": [
        14
      ],
      "name": "Joint_4_2_06",
      "translation": [
        -7.8472423553466797,
        -15.791483879089355,
        11.708583831787109
      ]
    },
    {
      "name": "Joint_2_2_07",
      "translation": [
        -7.2119894027709961,
        -8.8993949890136719,
        10.662284851074219
      ]
    },
    {
      "children": [
        16
      ],
      "name": "Joint_5_3_08",
      "rotation": [
        -8.0010302063722682e-17,
        0.92380571365356445,
        -8.0010302063722682e-17,
        -0.3828616738319397
      ],
      "translation": [
        -16.669609069824219,
        -6.6746439933776855,
        -83.041481018066406
      ]
    },
    {
      "children": [
        17
      ],
      "name": "Joint_4_3_09",
      "rotation": [
        -8.6629010896122885e-17,
        -7.4987965820540633e-33,
        8.6562187937518401e-17,
        1
      ],
      "translation": [
        -7.8472423553466797,
        -15.791483879089355,
        11.708583831787109
      ]
    },
    {
      "name": "Joint_2_3_010",
      "rotation": [
        -6.1629758220391547e-33,
        0,
        -1.2325951644078309e-32,
        1
      ],
      "translation": [
        -7.2119894027709961,
        -8.8993949890136719,
        10.662284851074219
      ]
    },
    {
      "children": [
        19
      ],
      "name": "Joint_5_4_011",
      "rotation": [
        -6.124415476840565e-17,
        1,
        -6.124415476840565e-17,
        -0.00019292307842988521
      ],
      "translation": [
        46.991165161132812,
        -6.6746439933776855,
        -70.481880187988281
      ]
    },
    {
      "children": [
        20
      ],
      "name": "Joint_4_4_012",
      "rotation": [
        -4.7252524471029781e-20,
        -5.7867651888378573e-36,
        1.2246467202362698e-16,
        1
      ],
      "translation": [
        -7.8472423553466797,
        -15.791483879089355,
        11.708583831787109
      ]
    },
    {
      "name": "Joint_2_4_013",
      "rotation": [
        0,
        -0,
        -3.8873692221241114e-32,
        1
      ],
      "translation": [
        -7.2119894027709961,
        -8.8993949890136719,
        10.662284851074219
      ]
    },
    {
      "children": [
        22
      ],
      "name": "Joint_5_5_014",
      "rotation": [
        -9.7386418929090723e-09,
        0.92425811290740967,
        -4.02258137910394e-09,
        0.38176816701889038
      ],
      "translation": [
        83.098457336425781,
        -6.6746430397033691,
        -16.718511581420898
      ]
    },
    {
      "children": [
        23
      ],
      "name": "Joint_4_5_015",
      "rotation": [
        1.6543612251060553e-24,
        -0,
        -8.2718061255302767e-25,
        1
      ],
      "translation": [
        -7.8472423553466797,
        -15.791483879089355,
        11.708583831787109
      ]
    },
    {
      "name": "Joint_2_5_016",
      "rotation": [
        8.2718061255302767e-25,
        0,
        0,
        1
      ],
      "translation": [
        -7.2119894027709961,
        -8.8993949890136719,
        10.662284851074219
      ]
    },
    {
      "children": [
        25
      ],
      "name": "Joint_5_6_017",
      "rotation": [
        -3.1391522775233121e-16,
        0.70780682563781738,
        -3.1391522775233121e-16,
        0.70640605688095093
      ],
      "translation": [
        70.640419006347656,
        -6.6746439933776855,
        46.962215423583984
      ]
    },
    {
      "children": [
        26
      ],
      "name": "Joint_4_6_018",
      "rotation": [
        -3.8518598887744717e-34,
        2.2204460492503131e-16,
        -4.9303806576313238e-32,
        1
      ],
      "translation": [
        -7.8472423553466797,
        -15.791483879089355,
        11.708583831787109
      ]
    },
    {
      "name": "Joint_2_6_019",
      "translation": [
        -7.2119894027709961,
        -8.8993949890136719,
        10.662284851074219
      ]
    },
    {
      "children": [
        28
      ],
      "name": "Joint_5_7_020",
      "rotation": [
        0,
        0.38268348574638367,
        0,
        0.92387962341308594
      ],
      "translation": [
        16.637535095214844,
        -6.6746439933776855,
        83.215248107910156
      ]
    },
    {
      "children": [
        29
      ],
      "name": "Joint_4_7_021",
      "rotation": [
        0,
        5.5511151231257827e-16,
        0,
        1
      ],
      "translation": [
        -7.8472423553466797,
        -15.791483879089355,
        11.708583831787109
      ]
    },
    {
      "name": "Joint_2_7_022",
      "translation": [
        -7.2119894027709961,
        -8.8993949890136719,
        10.662284851074219
      ]
    },
    {
      "children": [
        31
      ],
      "name": "Joint_5_8_023",
      "translation": [
        -47.018386840820312,
        -6.6746439933776855,
        70.631088256835938
      ]
    },
    {
      "children": [
        32
      ],
      "name": "Joint_4_8_024",
      "translation": [
        -7.8472423553466797,
        -15.791483879089355,
        11.708583831787109
      ]
    },
    {
      "name": "Joint_2_8_025",
      "translation": [
        -7.2119894027709961,
        -8.8993949890136719,
        10.662284851074219
      ]
    },
    {
      "children": [
        34
      ],
      "name": "sp_026",
      "translation": [
        0,
        41.254379272460938,
        -3.9146873950958252
      ]
    },
    {
      "children": [
        35,
        40
      ],
      "name": "sp2_027",
      "translation": [
        0,
        35.869426727294922,
        -0.56457030773162842
      ]
    },
    {
      "children": [
        36,
        38
      ],
      "name": "sp3_028",
      "translation": [
        0,
        38.970542907714844,
        0.92629128694534302
      ]
    },
    {
      "children": [
        37
      ],
      "name": "Joint_1_029",
      "translation": [
        -58.595001220703125,
        7.9522538185119629,
        -11.963501930236816
      ]
    },
    {
      "name": "Joint_1_2_00",
      "translation": [
        -30.191238403320312,
        16.248397827148438,
        16.393951416015625
      ]
    },
    {
      "children": [
        39
      ],
      "name": "Joint_030",
      "translation": [
        58.595260620117188,
        7.9522538185119629,
        -11.963501930236816
      ]
    },
    {
      "name": "Joint_1_3_031",
      "translation": [
        30.190740585327148,
        16.248397827148438,
        16.393951416015625
      ]
    },
    {
      "children": [
        41
      ],
      "matrix": [
        1,
        0,
        0,
        0,
        0,
        0.99301445612160344,
        -0.11799275373308335,
        0,
        0,
        0.11799275373308335,
        0.99301445612160344,
        0,
        0,
        94.522720336914062,
        0.70110982656478882,
        1
      ],
      "name": "Halo"
    },
    {
      "mesh": 1,
      "name": "Halo_Gold - Macro Scratches_0"
    }
  ],
  "samplers": [
    {
      "magFilter": 9729,
      "minFilter": 9987,
      "wrapS": 10497,
      "wrapT": 10497
    }
  ],
  "scene": 0,
  "scenes": [
    {
      "name": "OSG_Scene",
      "nodes": [
        0
      ]
    }
  ],
  "skins": [
    {
      "inverseBindMatrices": 8,
      "joints": [
        5,
        8,
        9,
        10,
        11,
        12,
        13,
        14,
        15,
        16,
        17,
        18,
        19,
        20,
        21,
        22,
        23,
        24,
        25,
        26,
        27,
        28,
        29,
        30,
        31,
        32,
        33,
        34,
        35,
        36,
        37,
        38,
        39
      ],
      "skeleton": 5
    }
  ],
  "textures": [
    {
      "sampler": 0,
      "source": 0
    }
  ]
}

